<svg xmlns="http://www.w3.org/2000/svg" width="844" height="844" viewBox="0 0 844 844">
  <path id="Subtraction_1" data-name="Subtraction 1" d="M422,844a428.749,428.749,0,0,1-43.147-2.179,423.069,423.069,0,0,1-41.9-6.395c-13.595-2.782-27.2-6.281-40.442-10.4-13.092-4.072-26.136-8.846-38.772-14.191A423.234,423.234,0,0,1,33.163,586.262c-5.344-12.635-10.119-25.68-14.191-38.772-4.118-13.241-7.617-26.847-10.4-40.442a423.051,423.051,0,0,1-6.395-41.9,428.316,428.316,0,0,1,0-86.294,423.051,423.051,0,0,1,6.395-41.9c2.782-13.595,6.281-27.2,10.4-40.442,4.072-13.092,8.846-26.136,14.191-38.772A423.233,423.233,0,0,1,257.739,33.163c12.635-5.344,25.68-10.119,38.772-14.191,13.241-4.118,26.847-7.617,40.442-10.4a423.051,423.051,0,0,1,41.9-6.395,428.316,428.316,0,0,1,86.294,0,423.051,423.051,0,0,1,41.9,6.395c13.595,2.782,27.2,6.281,40.442,10.4,13.092,4.072,26.136,8.846,38.772,14.191A423.233,423.233,0,0,1,810.837,257.739c5.344,12.635,10.119,25.68,14.191,38.772,4.118,13.241,7.617,26.847,10.4,40.442a423.069,423.069,0,0,1,6.395,41.9,428.317,428.317,0,0,1,0,86.294,423.069,423.069,0,0,1-6.395,41.9c-2.782,13.595-6.281,27.2-10.4,40.442-4.072,13.092-8.846,26.136-14.191,38.772A423.233,423.233,0,0,1,586.262,810.837c-12.635,5.344-25.68,10.119-38.772,14.191-13.241,4.118-26.847,7.617-40.442,10.4a423.069,423.069,0,0,1-41.9,6.395A428.749,428.749,0,0,1,422,844Zm0-688c-146.673,0-266,119.327-266,266S275.327,688,422,688,688,568.673,688,422,568.673,156,422,156Z" transform="translate(0 0)" fill="#fafafa"/>
</svg>
