<svg xmlns="http://www.w3.org/2000/svg" width="948.885" height="988.898" viewBox="0 0 948.885 988.898">
  <g id="Path_1" data-name="Path 1" fill="#6214ff" stroke-linecap="round" stroke-linejoin="round">
    <path d="M 669.5614624023438 988.3984375 L 0.5000019669532776 889.1799926757813 L 0.5000019669532776 0.4999687373638153 L 948.38525390625 0.4999687373638153 L 948.38525390625 730.90771484375 C 948.38525390625 749.1870727539063 946.542236328125 767.2639770507813 942.9075317382813 784.63623046875 C 939.3561401367188 801.610107421875 934.0433959960938 818.1599731445313 927.1166381835938 833.8261108398438 C 920.30615234375 849.2296142578125 911.8467407226563 863.9813232421875 901.9735107421875 877.6716918945313 C 892.1945190429688 891.2314453125 880.9111328125 903.9134521484375 868.43701171875 915.365478515625 C 855.983154296875 926.7987060546875 842.1981201171875 937.1384887695313 827.4651489257813 946.0973510742188 C 812.6370239257813 955.1138305664063 796.6728515625 962.8380737304688 780.0162353515625 969.0554809570313 C 763.1241455078125 975.3607177734375 745.3035278320313 980.1959838867188 727.0494995117188 983.4271240234375 C 708.4242553710938 986.7238159179688 689.0835571289063 988.3964233398438 669.5614624023438 988.3984375 Z" stroke="none"/>
    <path d="M 1 0.99993896484375 L 1 888.748779296875 L 669.5977172851563 987.8984375 C 689.077392578125 987.8941650390625 708.3782348632813 986.2242431640625 726.96240234375 982.9346923828125 C 745.1865234375 979.708984375 762.9776611328125 974.8817138671875 779.8413696289063 968.5870971679688 C 796.4686279296875 962.3807373046875 812.4041137695313 954.6703491210938 827.2052612304688 945.6701049804688 C 841.910400390625 936.7282104492188 855.6690063476563 926.4083251953125 868.098876953125 914.9970703125 C 880.548095703125 903.5679931640625 891.8087768554688 890.9114990234375 901.5679931640625 877.3792114257813 C 911.4208984375 863.7169799804688 919.8628540039063 848.99560546875 926.6593627929688 833.6238403320313 C 933.5718994140625 817.98974609375 938.8740234375 801.4733276367188 942.4181518554688 784.53369140625 C 946.0458984375 767.195068359375 947.88525390625 749.1527099609375 947.88525390625 730.9075927734375 L 947.88525390625 0.99993896484375 L 1 0.99993896484375 M 0 -6.103515625e-05 L 948.88525390625 -6.103515625e-05 L 948.88525390625 730.9075927734375 C 948.88525390625 879.7894897460938 828.3784790039063 988.8984985351563 669.5244140625 988.8984985351563 L 0 889.611328125 L 0 -6.103515625e-05 Z" stroke="none" fill="#707070"/>
  </g>
</svg>
